<?xml version="1.0" encoding="iso-8859-1"?>
<!-- Generator: Adobe Illustrator 19.0.0, SVG Export Plug-In . SVG Version: 6.00 Build 0)  -->
<svg version="1.1" id="Capa_1" xmlns="http://www.w3.org/2000/svg" xmlns:xlink="http://www.w3.org/1999/xlink" x="0px" y="0px"
	 viewBox="0 0 511.999 511.999" style="enable-background:new 0 0 511.999 511.999;" xml:space="preserve">
<path style="fill:#FF0435;" d="M254.248,15.71v51.019l50.275-19.871c5.112-2.02,5.112-9.255,0-11.276L254.248,15.71z"/>
<path style="fill:#83C9FF;" d="M254.248,108.336c-4.267,0-7.726-3.459-7.726-7.726V17.416c0-4.267,3.459-7.726,7.726-7.726
	c4.267,0,7.726,3.459,7.726,7.726v83.194C261.974,104.877,258.515,108.336,254.248,108.336z"/>
<path style="fill:#B57959;" d="M313.567,108.255v214.463H198.433V108.255c0-4.553,3.688-8.241,8.241-8.241h98.65
	C309.878,100.014,313.567,103.702,313.567,108.255z"/>
<rect x="198.43" y="284.47" style="fill:#935C44;" width="115.13" height="38.25"/>
<path style="fill:#B57959;" d="M500.39,175.33v318.481c0,4.698-3.801,8.499-8.489,8.499h-117.09c-4.687,0-8.489-3.801-8.489-8.499
	V175.33H500.39z"/>
<g>
	<rect x="366.32" y="175.33" style="fill:#935C44;" width="134.07" height="21.242"/>
	<path style="fill:#935C44;" d="M424.538,312.138V493.81c0,3.018-0.608,5.893-1.72,8.499h-48.006c-4.687,0-8.489-3.801-8.489-8.499
		V284.468h30.545C412.124,284.468,424.538,296.882,424.538,312.138z"/>
</g>
<path style="fill:#72402F;" d="M444.375,269.689h-22.037c-3.156,0-5.715-2.559-5.715-5.715v-19.12
	c0-9.241,7.492-16.733,16.733-16.733l0,0c9.241,0,16.733,7.492,16.733,16.733v19.12C450.089,267.13,447.531,269.689,444.375,269.689
	z"/>
<path style="fill:#B57959;" d="M475.197,129.688v13.111h-23.439v-13.111c0-4.587-3.718-8.305-8.305-8.305h-20.194
	c-4.587,0-8.305,3.718-8.305,8.305v13.111h-23.439v-13.111c0-4.587-3.718-8.305-8.305-8.305h-20.194
	c-4.587,0-8.305,3.718-8.305,8.305v45.187c0,4.587,3.718,8.305,8.305,8.305h140.678c4.587,0,8.305-3.718,8.305-8.305v-45.187
	c0-4.587-3.718-8.305-8.305-8.305H483.5C478.915,121.383,475.197,125.101,475.197,129.688z"/>
<path style="fill:#CE9E89;" d="M411.145,312.138V493.81c0,4.698-3.801,8.499-8.489,8.499H123.179V297.86h273.688
	C404.758,297.86,411.145,304.247,411.145,312.138z"/>
<path style="fill:#B57959;" d="M159.07,297.86v195.951c0,3.018-0.608,5.893-1.72,8.499h-34.171V297.86H159.07z"/>
<path style="fill:#CE9E89;" d="M145.678,175.33v318.481c0,4.698-3.801,8.499-8.489,8.499H20.099c-4.687,0-8.489-3.801-8.489-8.499
	V175.33H145.678z"/>
<rect x="11.61" y="175.33" style="fill:#B57959;" width="134.07" height="21.242"/>
<path style="fill:#72402F;" d="M89.662,269.689H67.625c-3.156,0-5.715-2.559-5.715-5.715v-19.12c0-9.241,7.492-16.733,16.733-16.733
	l0,0c9.241,0,16.733,7.492,16.733,16.733v19.12C95.377,267.13,92.818,269.689,89.662,269.689z"/>
<path style="fill:#CE9E89;" d="M120.484,129.688v13.111H97.045v-13.111c0-4.587-3.718-8.305-8.305-8.305H68.547
	c-4.587,0-8.305,3.718-8.305,8.305v13.111H36.803v-13.111c0-4.587-3.718-8.305-8.305-8.305H8.305c-4.587,0-8.305,3.718-8.305,8.305
	v45.187c0,4.587,3.718,8.305,8.305,8.305h140.678c4.587,0,8.305-3.718,8.305-8.305v-45.187c0-4.587-3.718-8.305-8.305-8.305h-20.194
	C124.202,121.383,120.484,125.101,120.484,129.688z"/>
<g>
	<path style="fill:#72402F;" d="M215.034,502.309v-64.151c0-22.625,18.341-40.966,40.966-40.966l0,0
		c22.625,0,40.966,18.341,40.966,40.966v64.151"/>
	<path style="fill:#72402F;" d="M267.018,200.286h-22.037c-3.156,0-5.715-2.559-5.715-5.715v-19.12
		c0-9.241,7.492-16.733,16.733-16.733l0,0c9.241,0,16.733,7.492,16.733,16.733v19.12
		C272.733,197.728,270.174,200.286,267.018,200.286z"/>
</g>
<path style="fill:#B57959;" d="M98.34,319.573h-0.773c-4.267,0-7.726-3.459-7.726-7.726s3.459-7.726,7.726-7.726h0.773
	c4.267,0,7.726,3.459,7.726,7.726C106.066,316.114,102.607,319.573,98.34,319.573z"/>
<path style="fill:#72402F;" d="M78.644,346.547h-0.773c-4.267,0-7.726-3.459-7.726-7.726s3.459-7.726,7.726-7.726h0.773
	c4.267,0,7.726,3.459,7.726,7.726C86.37,343.087,82.911,346.547,78.644,346.547z"/>
<path style="fill:#B57959;" d="M103.156,355.24h-0.773c-4.267,0-7.726-3.459-7.726-7.726s3.459-7.726,7.726-7.726h0.773
	c4.267,0,7.726,3.459,7.726,7.726C110.882,351.781,107.423,355.24,103.156,355.24z"/>
<path style="fill:#CE9E89;" d="M457.658,319.573h-0.773c-4.267,0-7.726-3.459-7.726-7.726s3.459-7.726,7.726-7.726h0.773
	c4.267,0,7.726,3.459,7.726,7.726C465.384,316.114,461.925,319.573,457.658,319.573z"/>
<path style="fill:#B57959;" d="M337.384,385.959h-0.773c-4.267,0-7.726-3.459-7.726-7.726s3.459-7.726,7.726-7.726h0.773
	c4.267,0,7.726,3.459,7.726,7.726C345.111,382.5,341.651,385.959,337.384,385.959z"/>
<path style="fill:#72402F;" d="M355.099,407.809h-0.773c-4.267,0-7.726-3.459-7.726-7.726s3.459-7.726,7.726-7.726h0.773
	c4.267,0,7.726,3.459,7.726,7.726C362.825,404.35,359.366,407.809,355.099,407.809z"/>
<path style="fill:#CE9E89;" d="M242.546,234.488h-0.773c-4.267,0-7.726-3.459-7.726-7.726s3.459-7.726,7.726-7.726h0.773
	c4.267,0,7.726,3.459,7.726,7.726S246.813,234.488,242.546,234.488z"/>
<path style="fill:#935C44;" d="M451.456,346.547h-0.773c-4.267,0-7.726-3.459-7.726-7.726s3.459-7.726,7.726-7.726h0.773
	c4.267,0,7.726,3.459,7.726,7.726C459.182,343.087,455.723,346.547,451.456,346.547z"/>
<path style="fill:#72402F;" d="M294.648,362.145h-77.297c-5.756,0-10.422-4.666-10.422-10.422l0,0
	c0-5.756,4.666-10.422,10.422-10.422h77.297c5.756,0,10.422,4.666,10.422,10.422l0,0
	C305.07,357.479,300.404,362.145,294.648,362.145z"/>
<path style="fill:#CE9E89;" d="M281.575,132.24h-51.15c-4.267,0-7.726-3.459-7.726-7.726s3.459-7.726,7.726-7.726h51.15
	c4.267,0,7.726,3.459,7.726,7.726C289.301,128.781,285.842,132.24,281.575,132.24z"/>
<g>
</g>
<g>
</g>
<g>
</g>
<g>
</g>
<g>
</g>
<g>
</g>
<g>
</g>
<g>
</g>
<g>
</g>
<g>
</g>
<g>
</g>
<g>
</g>
<g>
</g>
<g>
</g>
<g>
</g>
</svg>
